# xmcd CD database file
#
# Track frame offsets:
#	150
#	26705
#	42003
#	60683
#	81573
#	103868
#	123080
#	138730
#	159550
#	178815
#	195543
#	215988
#	233630
#	251990
#	271903
#
# Disc length: 3933 seconds
#
# Revision: 0
# Processed by: cddbd v1.5.1PL0 Copyright (c) Steve Scherf et al.
# Submitted via: CDex 1.51
#
DISCID=e20f5b0f
DTITLE=best - Brazilian Wind
DYEAR=2002
DGENRE=Jazz
TTITLE0=Rainbow - Lee Ritenour
TTITLE1=Pepino Beach - Hroko Kokubu
TTITLE2=Gagabird - Joao Bosco and OscarCastro-Neves
TTITLE3=Noa-Noa - Gilson Peranzzetta and Sebastiao Tapajos
TTITLE4=Simplicidad - Lee Ritenour
TTITLE5=Playful Lovers - Oscar Castro-Neves
TTITLE6=Hoshi No Sanpo - Marco Pereira and Oscar Castro-Neves
TTITLE7=Samba Do Camarao - Hiroko Kokubu
TTITLE8=Unconditinal Love - Oscar Castro-Neves
TTITLE9=Revendo O Passado - Rafael Rabello
TTITLE10=Wave - Gilson Peranzzetta and Sebastiao Tapajos
TTITLE11=Felicia And Bianca - Oscar Castro-Neves
TTITLE12=Bossa Calango - Hiroko Kokubu
TTITLE13=Passarada - Hiroko Kokubu Featuring Ivan Lins
TTITLE14=Choro Sim,Por Que Nao - Gilson Peranzzetta and Sebastiao Tapajos
EXTD=YEAR: 2002
EXTT0=
EXTT1=
EXTT2=
EXTT3=
EXTT4=
EXTT5=
EXTT6=
EXTT7=
EXTT8=
EXTT9=
EXTT10=
EXTT11=
EXTT12=
EXTT13=
EXTT14=
PLAYORDER=
